<?xml version="1.0" encoding="iso-8859-1"?>
<!-- Generator: Adobe Illustrator 19.0.0, SVG Export Plug-In . SVG Version: 6.00 Build 0)  -->
<svg version="1.1" id="&#x421;&#x43B;&#x43E;&#x439;_1"
	 xmlns="http://www.w3.org/2000/svg" xmlns:xlink="http://www.w3.org/1999/xlink" x="0px" y="0px" viewBox="0 0 100 100"
	 style="enable-background:new 0 0 100 100;" xml:space="preserve">
<g id="XMLID_94_">
	<path id="XMLID_102_" style="fill:#00539F;" d="M50,0C23.291,0,1.639,21.652,1.639,48.361v11.822c0,0,14.401-5.036,16.443-9.995
		c3.385-8.221,20.957-33.208,36.11-18.055c-10.8-2.902-18.055,1.956-18.055,13.38c15.153,0,22.246,17.571,32.402,17.41
		c9.354-0.148,13.541-16.443,29.823-11.445v-3.117C98.361,21.652,76.709,0,50,0z"/>
	<path id="XMLID_95_" style="fill:#00A1EF;" d="M1.639,67.276c8.221-5.642,26.115-25.631,49.973-7.415s32.563-2.902,39.656-2.257
		c7.093,0.645,7.093,1.451,7.093,1.451v3.708c0,0-4.917-3.063-14.67,3.708c-13.702,11.284-30.387,4.756-45.621,0
		S11.916,76.182,1.639,86.459V67.276z"/>
	<path id="XMLID_96_" style="fill:#00A1EF;" d="M98.361,69.411c0,0-4.594-3.505-13.541,3.83c-8.947,7.335-41.107,9.35-52.069-1.128
		C25.545,65.223,1.639,95.003,1.639,95.003V100c0,0,18.78-16.443,31.274-10.156s25.78-2.232,38.205-5.557
		c20.795-5.566,27.243,5.88,27.243,5.88"/>
	<circle id="XMLID_97_" style="fill:#FFFFFF;" cx="43.391" cy="41.161" r="1.773"/>
</g>
</svg>
