<?xml version="1.0" encoding="iso-8859-1"?>
<!-- Generator: Adobe Illustrator 19.0.0, SVG Export Plug-In . SVG Version: 6.00 Build 0)  -->
<svg version="1.1" id="&#x421;&#x43B;&#x43E;&#x439;_1"
	 xmlns="http://www.w3.org/2000/svg" xmlns:xlink="http://www.w3.org/1999/xlink" x="0px" y="0px" viewBox="0 0 400 100"
	 style="enable-background:new 0 0 400 100;" xml:space="preserve">
<g id="XMLID_98_">
	<g id="XMLID_99_">
		<path id="XMLID_2_" d="M68.137,45.748c-2.232-2.232-5.4-3.528-9.073-3.528c-7.345,0-12.673,5.328-12.673,12.672
			c0,7.345,5.329,12.674,12.673,12.674c3.672,0,6.84-1.297,9.073-3.601l10.081,9.937c-4.896,4.896-11.665,7.993-19.154,7.993
			c-14.905,0-27.002-12.098-27.002-27.003c0-14.905,12.097-27.002,27.002-27.002c7.417,0,14.113,2.953,19.01,7.849L68.137,45.748z"
			/>
		<path id="XMLID_4_" d="M103.199,27.89v19.226h17.138V27.89h14.185v54.005h-14.185V61.301h-17.138v20.594H89.014V27.89H103.199z"/>
		<path id="XMLID_6_" d="M141.789,81.895l25.202-54.005h6.409l25.418,54.005h-14.185l-3.312-7.057h-22.106l-3.24,7.057H141.789z
			 M164.759,62.885h11.017l-5.472-11.881L164.759,62.885z"/>
		<path id="XMLID_9_" d="M254.474,27.818l-25.131,54.077h-6.479l-25.202-54.077h14.257l14.186,30.747l14.257-30.747H254.474z"/>
		<path id="XMLID_11_" d="M284.351,27.89c14.905,0,27.003,12.169,27.003,27.074c0,14.905-12.098,26.931-27.003,26.931
			s-26.93-12.025-26.93-26.931C257.421,40.059,269.445,27.89,284.351,27.89z M284.351,42.003c-7.057,0-12.816,5.761-12.816,12.889
			c0,7.057,5.76,12.89,12.816,12.89c7.129,0,12.89-5.833,12.89-12.89C297.24,47.764,291.479,42.003,284.351,42.003z"/>
		<path id="XMLID_14_" d="M360.887,81.895l-25.49-25.563v25.563h-14.185V27.89h5.761l25.562,25.49V27.89h14.186v54.005H360.887z"/>
	</g>
	<g id="XMLID_100_">
		<polygon points="287.347,21.06 296.491,6.729 305.764,12.646 		"/>
	</g>
</g>
</svg>
