<?xml version="1.0" encoding="iso-8859-1"?>
<!-- Generator: Adobe Illustrator 19.0.0, SVG Export Plug-In . SVG Version: 6.00 Build 0)  -->
<svg version="1.1" id="&#x421;&#x43B;&#x43E;&#x439;_1"
	 xmlns="http://www.w3.org/2000/svg" xmlns:xlink="http://www.w3.org/1999/xlink" x="0px" y="0px" viewBox="0 0 100 100"
	 style="enable-background:new 0 0 100 100;" xml:space="preserve">
<g id="XMLID_1_">
	<g id="XMLID_83_">
		<path style="fill:#EE3B33;" d="M46.328,64.481c-0.559,6.243-2.749,11.204-6.568,14.884c-3.82,3.681-9.061,5.52-15.722,5.52
			c-7.221,0-13.032-2.387-17.434-7.162C2.201,72.948,0,66.624,0,58.751c0-7.453,2.224-13.649,6.673-18.587
			c4.448-4.937,10.376-7.407,17.784-7.407c5.915,0,10.876,1.677,14.884,5.031c4.006,3.354,6.219,7.617,6.638,12.788H35.287
			c-0.559-2.748-1.805-4.88-3.738-6.394c-1.934-1.514-4.367-2.271-7.302-2.271c-3.029,0-5.579,0.851-7.651,2.55
			c-2.073,1.701-3.529,3.785-4.367,6.254c-0.839,2.469-1.258,5.171-1.258,8.106c0,5.125,1.188,9.213,3.564,12.263
			c2.376,3.052,5.566,4.577,9.573,4.577c6.661,0,10.458-3.727,11.39-11.18H46.328z"/>
	</g>
	<g id="XMLID_2_">
		<path id="XMLID_6_" style="fill:#00539F;" d="M98.042,82.962c-0.166-0.156-0.438-0.477-0.711-1.169
			c-0.244-0.623-0.438-1.412-0.565-2.348c-0.136-1.023-0.253-1.899-0.351-2.62c-0.088-0.701-0.185-1.656-0.273-2.844
			c-0.117-1.549-0.136-1.977-0.146-2.182c-0.526-6-2.474-9.906-5.786-11.65c1.656-0.994,3.029-2.318,4.101-3.984
			c1.49-2.309,2.25-5.036,2.25-8.104c0-5.055-1.705-8.893-5.075-11.406c-3.273-2.445-7.539-3.682-12.663-3.682H53.108v51.694h12.78
			V65.176h8.737c3.214,0,5.445,0.584,6.624,1.744c1.198,1.179,1.977,3.409,2.328,6.633c0,0.156,0.029,0.662,0.214,2.99
			c0.136,1.802,0.302,3.312,0.497,4.481c0.195,1.237,0.516,2.279,0.925,3.107l0.273,0.536H100L98.042,82.962z M85.525,73.495
			l-0.01-0.107c-0.399-3.75-1.354-6.322-2.903-7.851c-1.578-1.559-4.188-2.309-7.987-2.309H63.94v19.491h-8.884V34.921h23.767
			c4.695,0,8.562,1.11,11.504,3.302c2.883,2.153,4.286,5.367,4.286,9.838c0,2.688-0.653,5.055-1.938,7.052
			c-1.276,1.977-3.068,3.409-5.328,4.266l-3.136,1.179l3.283,0.682c3.848,0.799,6,4.305,6.565,10.647c0,0.166,0.01,0.584,0.136,2.24
			c0.097,1.227,0.195,2.211,0.292,2.951c0.088,0.721,0.205,1.597,0.351,2.63c0.146,1.091,0.38,2.036,0.682,2.815
			c0.029,0.068,0.058,0.136,0.088,0.195h-8.884c-0.214-0.555-0.39-1.237-0.516-2.007c-0.175-1.11-0.341-2.572-0.477-4.325
			C85.545,73.962,85.525,73.563,85.525,73.495z"/>
		<path id="XMLID_9_" style="fill:#00539F;" d="M82.895,43.094c-1.792-1.013-4.198-1.529-7.15-1.529H63.94v15.712h11.319
			c3.175,0,5.728-0.516,7.568-1.549c2.016-1.14,3.049-3.322,3.049-6.478C85.876,46.279,84.873,44.204,82.895,43.094z M75.259,55.328
			h-9.371V43.513h9.858c2.61,0,4.695,0.429,6.195,1.276c1.334,0.75,1.987,2.211,1.987,4.461c0,2.435-0.672,3.994-2.055,4.773
			C80.324,54.89,78.103,55.328,75.259,55.328z"/>
	</g>
	<g id="XMLID_47_">
		<rect id="XMLID_4_" x="1.325" y="15.115" style="fill:#00539F;" width="93.707" height="6.794"/>
	</g>
</g>
</svg>
