<?xml version="1.0" encoding="iso-8859-1"?>
<!-- Generator: Adobe Illustrator 19.0.0, SVG Export Plug-In . SVG Version: 6.00 Build 0)  -->
<svg version="1.1" id="&#x421;&#x43B;&#x43E;&#x439;_1"
	 xmlns="http://www.w3.org/2000/svg" xmlns:xlink="http://www.w3.org/1999/xlink" x="0px" y="0px" viewBox="0 0 400 100"
	 style="enable-background:new 0 0 400 100;" xml:space="preserve">
<g id="XMLID_103_">
	<g id="XMLID_225_">
		<g id="XMLID_332_">
			<g id="XMLID_336_">
				<polygon id="XMLID_31_" style="fill:#EE3B33;" points="71.073,72.729 71.073,48.857 68.718,48.857 68.718,72.729 45.796,72.729 
					45.796,15.74 68.718,15.74 68.718,35.041 71.073,35.041 71.073,15.74 93.995,15.74 93.995,72.729 				"/>
				<path id="XMLID_28_" style="fill:#00A552;" d="M91.495,18.24v51.988H73.573V46.357h-7.355v23.871H48.296V18.24h17.922v19.301
					h7.355V18.24H91.495 M96.495,13.24h-5H73.573h-2.355h-5H48.296h-5v5v51.988v5h5h17.922h5h2.355h17.922h5v-5V18.24V13.24
					L96.495,13.24z"/>
			</g>
			<path id="XMLID_333_" style="fill:#FFFFFF;stroke:#00A552;stroke-width:5;stroke-miterlimit:10;" d="M89.495,20.24v47.988H75.573
				V44.357H64.218v23.871H50.296V20.24h13.922v19.301h11.355V20.24H89.495 M93.495,16.24h-4H75.573h-4v4v15.301h-3.355V20.24v-4h-4
				H50.296h-4v4v47.988v4h4h13.922h4v-4V48.357h3.355v19.871v4h4h13.922h4v-4V20.24V16.24L93.495,16.24z"/>
		</g>
		<g id="XMLID_324_">
			<g id="XMLID_329_">
				<path id="XMLID_48_" style="fill:#EE3B33;" d="M97.84,72.729V28.326h1.692c-0.811-1.431-1.165-3.055-1.165-4.641
					c0-4.419,2.752-9.141,10.477-9.141c7.724,0,10.477,4.722,10.477,9.141c0,1.052-0.156,2.122-0.498,3.141l0.85-0.118v46.021H97.84
					z"/>
				<path id="XMLID_44_" style="fill:#00A552;" d="M108.844,17.045c7.199,0,7.977,4.644,7.977,6.641
					c0,1.997-0.777,6.641-7.977,6.641c-7.199,0-7.977-4.644-7.977-6.641C100.867,21.689,101.644,17.045,108.844,17.045
					 M117.172,29.58v40.649H100.34V30.826h2c3.896,0,8.121-0.313,12.556-0.93L117.172,29.58 M108.844,12.045
					c-9.578,0-12.977,6.271-12.977,11.641c0,0.703,0.058,1.422,0.181,2.141H95.34v5v39.402v5h5h16.832h5v-5V29.58v-5.743
					l-0.353,0.049c0.001-0.067,0.002-0.133,0.002-0.2C121.82,18.316,118.422,12.045,108.844,12.045L108.844,12.045z"/>
			</g>
			<path id="XMLID_325_" style="fill:#FFFFFF;stroke:#00A552;stroke-width:5;stroke-miterlimit:10;" d="M108.844,19.045
				c3.984,0,5.977,1.547,5.977,4.641s-1.992,4.641-5.977,4.641c-3.985,0-5.977-1.547-5.977-4.641S104.859,19.045,108.844,19.045
				 M115.172,31.877v36.352H102.34V32.826C106.347,32.826,110.624,32.51,115.172,31.877 M108.844,15.045
				c-7.356,0-9.977,4.464-9.977,8.641c0,1.785,0.479,3.622,1.6,5.141H98.34v4v35.402v4h4h12.832h4v-4V31.877v-4.595l-1.137,0.158
				c0.543-1.189,0.786-2.485,0.786-3.754C118.82,19.508,116.199,15.045,108.844,15.045L108.844,15.045z"/>
		</g>
		<g id="XMLID_313_">
			<g id="XMLID_319_">
				<path id="XMLID_86_" style="fill:#EE3B33;" d="M141.446,85.455c-13.46,0-20.285-3.75-20.285-11.145
					c0-1.945,0.626-3.729,1.804-5.224c-1.785-2.038-2.226-4.242-2.226-5.921c0-3.448,1.531-6.541,4.558-9.226
					c-2.349-2.597-3.574-5.893-3.574-9.688c0-4.838,2.061-9.095,5.959-12.313c3.698-3.051,8.27-4.598,13.587-4.598
					c0.423,0,0.869,0.01,1.34,0.031c1.089-5.353,5.231-8.468,11.492-8.468c6.354,0,10.301,3.597,10.301,9.387
					c0,3.159-1.251,5.61-3.396,6.987c2,2.582,3.009,5.597,3.009,9.009c0,4.614-2.172,8.698-6.282,11.813
					c-0.002,0.002-0.004,0.003-0.006,0.005c8.345,2.7,9.417,9.704,9.417,13.108C167.146,76.622,162.687,85.455,141.446,85.455z"/>
				<path id="XMLID_80_" style="fill:#00A552;" d="M154.102,21.404c4.958,0,7.801,2.51,7.801,6.887c0,3.586-2.049,5.727-5.48,5.727
					c-0.093,0-0.187-0.002-0.281-0.007c3.571,2.678,5.375,6.119,5.375,10.276c0,3.855-1.78,7.159-5.292,9.82
					c-2.27,1.721-4.873,2.864-7.771,3.421c0.516-0.013,0.98-0.019,1.395-0.019c12.23,0,14.797,6.364,14.797,11.703
					c0,9.118-7.805,13.742-23.199,13.742c-4.399,0-17.785,0-17.785-8.645c0-1.676,0.629-3.703,3.059-5.279
					c-2.775-1.804-3.481-4.049-3.481-5.865c0-3.424,2.01-6.467,5.985-9.074c-3.287-2.331-5.001-5.678-5.001-9.84
					c0-4.125,1.7-7.619,5.051-10.384c3.238-2.671,7.274-4.026,11.996-4.026c1.004,0,2.18,0.065,3.558,0.198
					C144.951,24.467,148.233,21.404,154.102,21.404 M142.782,50.443c0.843,0,1.41-2.121,1.41-5.277c0-6.513-1.223-7.844-1.551-7.844
					c-0.638,0-1.586,1.846-1.586,6.93C141.055,48.013,141.733,50.443,142.782,50.443 M138.071,58.037
					c0.326,0,1.112-0.023,3.01-0.137c0.326-0.021,0.645-0.042,0.956-0.062c-1.186-0.087-2.542-0.24-4.091-0.462
					c-0.37,0.254-0.587,0.454-0.713,0.594C137.413,58.006,137.682,58.037,138.071,58.037 M142.009,75.475
					c6.107,0,7.926-1.112,8.079-1.775c-0.283-0.245-1.739-1.15-7.798-1.15c-5.685,0-6.965,1.097-6.965,1.48
					C135.325,74.404,136.553,75.475,142.009,75.475 M154.102,16.404c-6.7,0-11.496,3.131-13.387,8.443
					c-5.679,0.106-10.596,1.842-14.623,5.164c-4.494,3.708-6.869,8.633-6.869,14.241c0,3.585,0.937,6.792,2.748,9.496
					c-2.986,3.394-3.733,6.83-3.733,9.418c0,2.174,0.582,4.205,1.689,5.993c-0.832,1.554-1.267,3.294-1.267,5.152
					c0,3.495,1.417,9.75,10.907,12.382c4.552,1.262,9.5,1.262,11.878,1.262c8.691,0,15.207-1.357,19.921-4.15
					c5.416-3.208,8.279-8.254,8.279-14.592c0-4.541-1.455-8.454-4.207-11.318c-0.938-0.976-2.01-1.82-3.214-2.531
					c2.821-3.156,4.293-6.925,4.293-11.076c0-3.126-0.761-6.017-2.238-8.587c1.664-1.869,2.625-4.426,2.625-7.409
					C166.903,21.181,161.759,16.404,154.102,16.404L154.102,16.404z"/>
			</g>
			<path id="XMLID_314_" style="fill:#FFFFFF;stroke:#00A552;stroke-width:5;stroke-miterlimit:10;" d="M154.102,23.404
				c3.867,0,5.801,1.629,5.801,4.887c0,2.484-1.16,3.727-3.48,3.727c-0.773,0-1.688-0.258-2.742-0.773
				c-0.656-0.328-1.148-0.504-1.477-0.527c-0.044-0.003-0.087-0.004-0.13-0.004c-1.016,0-1.523,0.81-1.523,2.43
				c5.977,2.555,8.965,6.27,8.965,11.145c0,3.211-1.5,5.953-4.5,8.227c-3,2.273-6.622,3.41-10.863,3.41
				c-1.641,0-3.855-0.211-6.645-0.633c-1.617,0.938-2.426,1.875-2.426,2.813c0,1.289,0.996,1.934,2.988,1.934
				c0.515,0,1.559-0.047,3.129-0.141c3.96-0.258,6.843-0.387,8.648-0.387c8.531,0,12.797,3.234,12.797,9.703
				c0,7.828-7.066,11.742-21.199,11.742c-10.524,0-15.785-2.215-15.785-6.645c0-2.555,2.132-4.289,6.398-5.203
				c-4.547-1.195-6.82-3.176-6.82-5.941c0-3.445,2.707-6.48,8.121-9.105c-4.758-1.922-7.137-5.191-7.137-9.809
				c0-3.516,1.441-6.463,4.324-8.842c2.883-2.378,6.457-3.568,10.723-3.568c1.453,0,3.363,0.153,5.73,0.457
				c-0.118-0.82-0.176-1.464-0.176-1.934C146.825,25.725,149.251,23.404,154.102,23.404 M142.782,52.443
				c2.273,0,3.41-2.426,3.41-7.277c0-6.562-1.184-9.844-3.551-9.844c-2.391,0-3.586,2.977-3.586,8.93
				C139.055,49.713,140.298,52.443,142.782,52.443 M142.009,77.475c6.727,0,10.09-1.289,10.09-3.867c0-2.039-3.27-3.059-9.809-3.059
				c-5.977,0-8.965,1.16-8.965,3.48C133.325,76.326,136.219,77.475,142.009,77.475 M154.102,19.404
				c-6.168,0-10.164,3.126-11.077,8.49c-0.632-0.035-1.215-0.053-1.755-0.053c-5.199,0-9.663,1.508-13.268,4.483
				c-3.781,3.12-5.779,7.244-5.779,11.927c0,2.986,0.773,6.675,3.775,9.742c-3.163,2.659-4.76,5.729-4.76,9.172
				c0,1.83,0.523,3.992,2.371,5.918c-1.595,1.824-1.949,3.818-1.949,5.226c0,2.233,0.831,6.328,6.394,8.67
				c3.156,1.329,7.536,1.974,13.391,1.974c20.827,0,25.199-8.561,25.199-15.742c0-3.403-1.117-10.533-10.047-12.911
				c0.282-0.192,0.56-0.392,0.834-0.6c5.029-3.811,6.084-8.311,6.084-11.415c0-2.716-0.707-6.046-3.29-9.145
				c2.311-1.221,3.677-3.65,3.677-6.851C163.903,23.995,161.328,19.404,154.102,19.404L154.102,19.404z"/>
		</g>
		<g id="XMLID_308_">
			<g id="XMLID_312_">
				<path id="XMLID_26_" style="fill:#EE3B33;" d="M180.518,73.396c-8.695,0-13.887-5.1-13.887-13.641V28.482l4.305-0.187
					c4.212-0.183,8.445-0.485,12.582-0.896l4.946-0.492v1.53l3.249-0.142c4.191-0.183,8.425-0.485,12.584-0.896l4.943-0.489v45.818
					h-21.831v-0.683C185.283,72.943,182.979,73.396,180.518,73.396z"/>
				<path id="XMLID_23_" style="fill:#00A552;" d="M185.963,29.668v29.771c0,0.969,0.142,1.412,0.218,1.581
					c3.087-0.105,3.728-5.684,3.728-10.37V30.876l1.913-0.083c4.232-0.185,8.513-0.49,12.722-0.906l2.197-0.217v40.559h-16.832
					v-2.567c-2.69,2.15-5.832,3.235-9.391,3.235c-7.343,0-11.387-3.956-11.387-11.141v-28.88l1.913-0.083
					c4.256-0.185,8.536-0.49,12.721-0.906L185.963,29.668 M190.963,24.146l-5.495,0.547l-2.198,0.219
					c-4.09,0.407-8.276,0.705-12.443,0.886l-1.913,0.083l-4.783,0.208v4.788v28.88c0,9.956,6.279,16.141,16.387,16.141
					c1.844,0,3.612-0.223,5.296-0.668h4.095h16.832h5v-5V29.669v-5.519l-5.492,0.543l-2.197,0.217
					c-4.114,0.407-8.302,0.705-12.448,0.887l-0.639,0.028V24.146L190.963,24.146z"/>
			</g>
			<path id="XMLID_309_" style="fill:#FFFFFF;stroke:#00A552;stroke-width:5;stroke-miterlimit:10;" d="M204.74,31.877v36.352
				h-12.832v-5.66c-2.953,4.219-6.75,6.328-11.391,6.328c-6.258,0-9.387-3.047-9.387-9.141V32.791
				c4.312-0.188,8.59-0.492,12.832-0.914v27.563c0,2.391,0.726,3.586,2.18,3.586c3.844,0,5.766-4.125,5.766-12.375V32.791
				C196.197,32.604,200.474,32.299,204.74,31.877 M187.963,27.459l-4.396,0.437c-4.148,0.413-8.391,0.715-12.61,0.898l-3.826,0.166
				v3.83v26.965c0,8.351,4.879,13.141,13.387,13.141c2.649,0,5.129-0.557,7.391-1.644v0.976h4h12.832h4v-4V31.877v-4.415
				l-4.394,0.435c-4.173,0.413-8.417,0.715-12.613,0.898l-3.771,0.165V27.459L187.963,27.459z"/>
		</g>
		<g id="XMLID_291_">
			<g id="XMLID_304_">
				<path id="XMLID_65_" style="fill:#EE3B33;" d="M233.053,73.537c-14.328,0-22.219-7.878-22.219-22.184
					c0-6.799,1.95-12.517,5.797-16.995c4.02-4.68,9.226-7.052,15.473-7.052c7.418,0,19.863,3.161,19.863,24.328v1.74l0.298,0.088
					l-0.237,3.601C251.622,63.216,248.616,73.537,233.053,73.537z M233.512,56.135c0.393,3.092,1.229,4.922,2.318,4.922
					c1.315,0,2.109,0,2.109-3.375c0-0.465-0.012-0.98-0.034-1.547H233.512z"/>
				<path id="XMLID_60_" style="fill:#00A552;" d="M232.104,29.807c7.921,0,17.363,3.787,17.363,21.828v2h-5.516l5.688,1.664
					l-0.105,1.601c-0.426,6.449-3.63,14.138-16.48,14.138c-12.9,0-19.719-6.807-19.719-19.684c0-6.184,1.747-11.354,5.193-15.366
					C222.051,31.886,226.618,29.807,232.104,29.807 M230.819,45.662h3.546c-0.22-7.545-1.667-8.369-1.683-8.375h-0.016
					c-0.31,0-1.521,1.233-1.799,7.268L230.819,45.662 M235.83,63.557c2.394,0,4.609-0.712,4.609-5.875
					c0-0.674-0.022-1.448-0.067-2.323l-0.089-1.724h-9.479C231.077,60.222,232.765,63.557,235.83,63.557 M232.104,24.807
					c-6.91,0-12.916,2.74-17.369,7.923c-4.247,4.945-6.401,11.211-6.401,18.624c0,15.687,9.01,24.684,24.719,24.684
					c12.342,0,20.048-6.32,21.342-17.402h0.072v-0.697c0.021-0.234,0.04-0.471,0.056-0.708l0.106-1.601l0.264-4.001l-0.425-0.124
					C254.41,27.411,238.815,24.807,232.104,24.807L232.104,24.807z"/>
			</g>
			<path id="XMLID_292_" style="fill:#FFFFFF;stroke:#00A552;stroke-width:5;stroke-miterlimit:10;" d="M232.104,31.807
				c10.242,0,15.363,6.609,15.363,19.828h-18.703c0,9.281,2.355,13.922,7.066,13.922c4.406,0,6.609-2.625,6.609-7.875
				c0-0.703-0.023-1.512-0.07-2.426l5.168,1.512c-0.539,8.18-5.367,12.27-14.484,12.27c-11.813,0-17.719-5.895-17.719-17.684
				c0-5.719,1.57-10.406,4.711-14.063S227.205,31.807,232.104,31.807 M228.729,47.662h7.664c0-8.25-1.242-12.375-3.727-12.375
				c-2.25,0-3.516,3.059-3.797,9.176L228.729,47.662 M232.104,27.807c-6.095,0-11.173,2.314-15.093,6.878
				c-3.767,4.385-5.677,9.993-5.677,16.669c0,13.983,7.713,21.684,21.719,21.684c11.234,0,17.795-5.685,18.476-16.006l0.211-3.201
				l-0.273-0.08v-2.115C251.467,30.902,239.335,27.807,232.104,27.807L232.104,27.807z M232.966,55.635h5.417
				c0.037,0.771,0.056,1.459,0.056,2.047c0,3.875-1.209,3.875-2.609,3.875C234.018,61.557,233.27,58.474,232.966,55.635
				L232.966,55.635z"/>
		</g>
		<g id="XMLID_272_">
			<g id="XMLID_290_">
				<path id="XMLID_21_" style="fill:#EE3B33;" d="M253.562,72.729V28.228l7.06,0.099c2.646,0,5.873-0.301,9.559-0.893l5.214-0.838
					v1.229c1.014-0.298,2.069-0.448,3.164-0.448c6.593,0,10.688,4.338,10.688,11.32c0,1.567-0.249,3.328-0.74,5.236
					c-0.107,0.497-0.337,1.475-0.65,2.779l-0.831,3.446h-11.63v22.57H253.562z"/>
				<path id="XMLID_18_" style="fill:#00A552;" d="M272.894,29.53v2.421c1.689-1.379,3.582-2.074,5.664-2.074
					c5.203,0,8.188,3.215,8.188,8.82c0,1.358-0.223,2.909-0.661,4.612c-0.126,0.575-0.352,1.536-0.66,2.816l-0.369,1.532h-12.161
					v22.57h-16.832V30.763l4.524,0.063c2.805,0,6.176-0.311,9.99-0.924L272.894,29.53 M277.894,23.662l-5.794,0.931l-2.317,0.373
					c-3.538,0.568-6.621,0.858-9.163,0.86l-4.488-0.063l-5.07-0.071v5.071v39.466v5h5h16.832h5v-5v-17.57h7.161h3.938l0.922-3.829
					l0.369-1.532c0.304-1.263,0.53-2.226,0.664-2.83c0.528-2.077,0.796-4.018,0.796-5.77c0-8.396-5.176-13.82-13.188-13.82
					c-0.223,0-0.444,0.005-0.664,0.015V23.662L277.894,23.662z"/>
			</g>
			<path id="XMLID_287_" style="fill:#FFFFFF;stroke:#00A552;stroke-width:5;stroke-miterlimit:10;" d="M278.558,31.877
				c4.125,0,6.188,2.273,6.188,6.82c0,1.195-0.199,2.566-0.598,4.113c-0.141,0.633-0.363,1.582-0.668,2.848h-8.789
				c0.305-1.383,0.574-2.402,0.809-3.059c0.328-0.961,0.492-1.828,0.492-2.602c0-1.5-0.539-2.25-1.617-2.25
				c-0.82,0-1.605,0.99-2.355,2.971s-1.125,4.072-1.125,6.275v21.234h-12.832V32.791l2.496,0.035c2.953,0,6.398-0.316,10.336-0.949
				v5.836C272.98,33.823,275.534,31.877,278.558,31.877 M274.894,27.183l-4.635,0.745c-3.698,0.594-6.952,0.897-9.674,0.899
				l-2.467-0.035l-4.056-0.057v4.057v35.438v4h4h12.832h4v-4v-18.57h8.586h3.151l0.738-3.064c0.302-1.254,0.525-2.205,0.67-2.852
				c0.476-1.865,0.707-3.516,0.707-5.045c0-6.775-3.808-10.82-10.188-10.82c-1.093,0-2.346,0.165-3.664,0.651V27.183L274.894,27.183
				z"/>
		</g>
		<g id="XMLID_231_">
			<g id="XMLID_258_">
				<path id="XMLID_76_" style="fill:#EE3B33;" d="M303.039,73.467c-9.84,0-15.715-5.572-15.715-14.906
					c0-3.364,1.016-7.602,5.082-11.071l-1.927-0.373l-0.47-3.15c-0.195-1.316-0.295-2.58-0.295-3.758
					c0-5.902,3.452-12.938,19.898-12.938c15.807,0,19.125,6.729,19.125,12.375v18.688l1.953-1.108l4.687,12.314l-4.168,1.617
					c-3.647,1.415-7.283,2.133-10.804,2.133c-3.492,0-6.352-0.738-8.533-2.197C309.386,72.67,306.424,73.467,303.039,73.467z
					 M304.372,39.631c-0.016,0.085-0.032,0.247-0.032,0.543c0,0.104,0.018,0.557,0.284,1.505c1.628-0.78,2.207-1.366,2.383-1.585
					c-0.012-0.319-0.046-0.513-0.072-0.621c-0.131-0.032-0.386-0.073-0.837-0.073C305.011,39.4,304.534,39.558,304.372,39.631z"/>
				<path id="XMLID_68_" style="fill:#00A552;" d="M309.614,29.771c11.031,0,16.625,3.322,16.625,9.875v21.516
					c0,0.738,0.099,1.114,0.163,1.281c0.136-0.04,0.437-0.155,0.963-0.454l2.027-1.15l2.767,7.27l-1.853,0.719
					c-3.357,1.303-6.688,1.964-9.899,1.964c-4.368,0-6.938-1.285-8.446-2.87c-2.336,2.023-5.325,3.046-8.921,3.046
					c-8.521,0-13.215-4.406-13.215-12.406c0-5.629,3.21-9.749,9.549-12.271l-6.682-1.292l-0.209-1.4
					c-0.178-1.194-0.268-2.334-0.268-3.389C292.215,33.283,298.069,29.771,309.614,29.771 M303.121,44.997
					c5.73-2.056,6.391-3.907,6.391-4.647c0-2.514-0.926-3.449-3.414-3.449c-3.929,0-4.258,1.689-4.258,3.273
					c0,0.593,0.149,1.712,0.864,3.676L303.121,44.997 M307.46,62.044c1.293-0.055,1.946-1.723,1.946-4.96v-6.007
					c-1.872,1.193-2.75,3.089-2.75,5.937C306.656,60.81,307.294,61.84,307.46,62.044 M309.614,24.771
					c-19.489,0-22.398,9.672-22.398,15.437c0,1.301,0.108,2.689,0.322,4.125l0.209,1.402l0.398,2.665
					c-2.178,2.876-3.32,6.31-3.32,10.159c0,10.737,6.98,17.406,18.215,17.406c3.286,0,6.237-0.666,8.818-1.986
					c2.359,1.203,5.219,1.81,8.549,1.81c3.831,0,7.771-0.775,11.708-2.302l1.852-0.719l4.631-1.797l-1.767-4.643l-2.767-7.27
					l-2.073-5.446l-0.754,0.428V39.646C331.239,34.091,328.429,24.771,309.614,24.771L309.614,24.771z"/>
			</g>
			<path id="XMLID_232_" style="fill:#FFFFFF;stroke:#00A552;stroke-width:5;stroke-miterlimit:10;" d="M309.614,31.771
				c9.75,0,14.625,2.625,14.625,7.875v21.516c0,2.203,0.715,3.305,2.145,3.305c0.445,0,1.102-0.246,1.969-0.738l1.23,3.234
				c-3.141,1.219-6.199,1.828-9.176,1.828c-4.406,0-7.125-1.371-8.156-4.113c-2.133,2.859-5.203,4.289-9.211,4.289
				c-7.477,0-11.215-3.469-11.215-10.406c0-5.273,3.422-8.977,10.266-11.109c6.281-1.969,9.422-4.336,9.422-7.102
				c0-3.633-1.805-5.449-5.414-5.449c-4.172,0-6.258,1.758-6.258,5.273c0,1.102,0.328,2.555,0.984,4.359l-6.363-1.23
				c-0.164-1.102-0.246-2.132-0.246-3.094C294.215,34.584,299.348,31.771,309.614,31.771 M307.399,64.045
				c2.672,0,4.008-2.32,4.008-6.961v-10.16c-0.797,0.914-1.723,1.676-2.777,2.285c-2.648,1.547-3.973,4.148-3.973,7.805
				C304.656,61.701,305.571,64.045,307.399,64.045 M309.614,27.771c-5.87,0-10.276,0.851-13.471,2.601
				c-3.822,2.094-5.927,5.588-5.927,9.836c0,1.153,0.098,2.392,0.29,3.683l0.417,2.8l2.65,0.512
				c-4.592,3.441-5.747,7.821-5.747,11.356c0,9.155,5.546,14.406,15.215,14.406c3.373,0,6.352-0.843,8.815-2.471
				c1.866,1.341,4.588,2.295,8.552,2.295c3.46,0,7.034-0.706,10.623-2.099l3.704-1.438l-1.413-3.714l-1.23-3.234l-1.658-4.358
				l-2.194,1.245V39.646c0-4.08-2.046-7.428-5.76-9.428C319.421,28.572,315.213,27.771,309.614,27.771L309.614,27.771z
				 M304.31,42.368c-0.418-1.304-0.47-1.954-0.47-2.194c0-0.675,0.137-0.892,0.139-0.894c0.002-0.002,0.441-0.38,2.119-0.38
				c0.902,0,1.21,0.177,1.235,0.193c-0.006,0.003,0.167,0.3,0.178,1.165C307.393,40.442,306.751,41.277,304.31,42.368L304.31,42.368
				z"/>
		</g>
		<g id="XMLID_226_">
			<g id="XMLID_230_">
				<path id="XMLID_27_" style="fill:#EE3B33;" d="M332.372,72.729V15.74h4.5c3.386,0,7.563-0.23,12.413-0.684l4.919-0.46v58.132
					H332.372z"/>
				<path id="XMLID_16_" style="fill:#00A552;" d="M351.704,17.341v52.887h-16.832V18.24h2c3.466,0,7.721-0.234,12.646-0.694
					L351.704,17.341 M356.704,11.852l-5.466,0.511l-2.186,0.205c-4.773,0.446-8.871,0.673-12.18,0.673h-2h-5v5v51.988v5h5h16.832h5
					v-5V17.341V11.852L356.704,11.852z"/>
			</g>
			<path id="XMLID_227_" style="fill:#FFFFFF;stroke:#00A552;stroke-width:5;stroke-miterlimit:10;" d="M349.704,19.537v48.691
				h-12.832V20.24C340.411,20.24,344.689,20.006,349.704,19.537 M353.704,15.145l-4.373,0.409
				c-4.864,0.455-9.056,0.686-12.459,0.686h-4v4v47.988v4h4h12.832h4v-4V19.537V15.145L353.704,15.145z"/>
		</g>
	</g>
	<g id="XMLID_104_">
		<g id="XMLID_105_">
			<polygon id="XMLID_167_" style="fill:#EE3B33;" points="73.573,70.229 73.573,46.357 66.218,46.357 66.218,70.229 48.296,70.229 
				48.296,18.24 66.218,18.24 66.218,37.541 73.573,37.541 73.573,18.24 91.495,18.24 91.495,70.229 			"/>
			<path id="XMLID_110_" style="fill:#FFFFFF;" d="M89.495,20.24v47.988H75.573V44.357H64.218v23.871H50.296V20.24h13.922v19.301
				h11.355V20.24H89.495 M93.495,16.24h-4H75.573h-4v4v15.301h-3.355V20.24v-4h-4H50.296h-4v4v47.988v4h4h13.922h4v-4V48.357h3.355
				v19.871v4h4h13.922h4v-4V20.24V16.24L93.495,16.24z"/>
		</g>
		<g id="XMLID_108_">
			<path id="XMLID_163_" style="fill:#EE3B33;" d="M100.34,70.229V30.826h2c3.896,0,8.121-0.313,12.556-0.93l2.276-0.316v40.649
				H100.34z M108.844,30.326c-7.199,0-7.977-4.644-7.977-6.641s0.777-6.641,7.977-6.641s7.977,4.644,7.977,6.641
				S116.043,30.326,108.844,30.326z"/>
			<path id="XMLID_113_" style="fill:#FFFFFF;" d="M108.844,19.045c3.984,0,5.977,1.547,5.977,4.641s-1.992,4.641-5.977,4.641
				c-3.985,0-5.977-1.547-5.977-4.641S104.859,19.045,108.844,19.045 M115.172,31.877v36.352H102.34V32.826
				C106.347,32.826,110.624,32.51,115.172,31.877 M108.844,15.045c-7.356,0-9.977,4.464-9.977,8.641c0,1.785,0.479,3.622,1.6,5.141
				H98.34v4v35.402v4h4h12.832h4v-4V31.877v-4.595l-1.137,0.158c0.543-1.189,0.786-2.485,0.786-3.754
				C118.82,19.508,116.199,15.045,108.844,15.045L108.844,15.045z"/>
		</g>
		<g id="XMLID_111_">
			<path id="XMLID_157_" style="fill:#EE3B33;" d="M141.446,82.955c-4.399,0-17.785,0-17.785-8.645c0-1.676,0.629-3.703,3.059-5.279
				c-2.775-1.804-3.481-4.049-3.481-5.865c0-3.424,2.01-6.467,5.985-9.074c-3.287-2.331-5.001-5.678-5.001-9.84
				c0-4.125,1.7-7.619,5.051-10.384c3.238-2.671,7.274-4.026,11.996-4.026c1.004,0,2.18,0.065,3.558,0.198
				c0.123-5.572,3.405-8.635,9.274-8.635c4.958,0,7.801,2.51,7.801,6.887c0,3.586-2.049,5.727-5.48,5.727
				c-0.093,0-0.187-0.002-0.281-0.007c3.571,2.678,5.375,6.119,5.375,10.276c0,3.855-1.78,7.159-5.292,9.82
				c-2.27,1.721-4.873,2.864-7.771,3.421c0.516-0.013,0.98-0.019,1.395-0.019c12.23,0,14.797,6.364,14.797,11.703
				C164.645,78.331,156.84,82.955,141.446,82.955z M142.29,72.549c-5.685,0-6.965,1.097-6.965,1.48c0,0.375,1.228,1.445,6.684,1.445
				c6.107,0,7.926-1.112,8.079-1.775C149.805,73.454,148.348,72.549,142.29,72.549z M137.232,57.971
				c0.181,0.035,0.45,0.066,0.839,0.066c0.326,0,1.112-0.023,3.01-0.137c0.326-0.021,0.645-0.042,0.956-0.062
				c-1.186-0.087-2.542-0.24-4.091-0.462C137.575,57.631,137.358,57.831,137.232,57.971z M142.641,37.322
				c-0.638,0-1.586,1.846-1.586,6.93c0,3.761,0.678,6.191,1.727,6.191c0.843,0,1.41-2.121,1.41-5.277
				C144.192,38.653,142.969,37.322,142.641,37.322z"/>
			<path id="XMLID_118_" style="fill:#FFFFFF;" d="M154.102,23.404c3.867,0,5.801,1.629,5.801,4.887c0,2.484-1.16,3.727-3.48,3.727
				c-0.773,0-1.688-0.258-2.742-0.773c-0.656-0.328-1.148-0.504-1.477-0.527c-0.044-0.003-0.087-0.004-0.13-0.004
				c-1.016,0-1.523,0.81-1.523,2.43c5.977,2.555,8.965,6.27,8.965,11.145c0,3.211-1.5,5.953-4.5,8.227
				c-3,2.273-6.622,3.41-10.863,3.41c-1.641,0-3.855-0.211-6.645-0.633c-1.617,0.938-2.426,1.875-2.426,2.813
				c0,1.289,0.996,1.934,2.988,1.934c0.515,0,1.559-0.047,3.129-0.141c3.96-0.258,6.843-0.387,8.648-0.387
				c8.531,0,12.797,3.234,12.797,9.703c0,7.828-7.066,11.742-21.199,11.742c-10.524,0-15.785-2.215-15.785-6.645
				c0-2.555,2.132-4.289,6.398-5.203c-4.547-1.195-6.82-3.176-6.82-5.941c0-3.445,2.707-6.48,8.121-9.105
				c-4.758-1.922-7.137-5.191-7.137-9.809c0-3.516,1.441-6.463,4.324-8.842c2.883-2.378,6.457-3.568,10.723-3.568
				c1.453,0,3.363,0.153,5.73,0.457c-0.118-0.82-0.176-1.464-0.176-1.934C146.825,25.725,149.251,23.404,154.102,23.404
				 M142.782,52.443c2.273,0,3.41-2.426,3.41-7.277c0-6.562-1.184-9.844-3.551-9.844c-2.391,0-3.586,2.977-3.586,8.93
				C139.055,49.713,140.298,52.443,142.782,52.443 M142.009,77.475c6.727,0,10.09-1.289,10.09-3.867c0-2.039-3.27-3.059-9.809-3.059
				c-5.977,0-8.965,1.16-8.965,3.48C133.325,76.326,136.219,77.475,142.009,77.475 M154.102,19.404
				c-6.168,0-10.164,3.126-11.077,8.49c-0.632-0.035-1.215-0.053-1.755-0.053c-5.199,0-9.663,1.508-13.268,4.483
				c-3.781,3.12-5.779,7.244-5.779,11.927c0,2.986,0.773,6.675,3.775,9.742c-3.163,2.659-4.76,5.729-4.76,9.172
				c0,1.83,0.523,3.992,2.371,5.918c-1.595,1.824-1.949,3.818-1.949,5.226c0,2.233,0.831,6.328,6.394,8.67
				c3.156,1.329,7.536,1.974,13.391,1.974c20.827,0,25.199-8.561,25.199-15.742c0-3.403-1.117-10.533-10.047-12.911
				c0.282-0.192,0.56-0.392,0.834-0.6c5.029-3.811,6.084-8.311,6.084-11.415c0-2.716-0.707-6.046-3.29-9.145
				c2.311-1.221,3.677-3.65,3.677-6.851C163.903,23.995,161.328,19.404,154.102,19.404L154.102,19.404z"/>
		</g>
		<g id="XMLID_115_">
			<path id="XMLID_153_" style="fill:#EE3B33;" d="M180.517,70.896c-7.343,0-11.387-3.956-11.387-11.141v-28.88l1.913-0.083
				c4.256-0.185,8.536-0.49,12.721-0.906l2.198-0.219v29.771c0,0.969,0.142,1.412,0.218,1.581c3.087-0.105,3.728-5.684,3.728-10.37
				V30.876l1.913-0.083c4.232-0.185,8.513-0.49,12.722-0.906l2.197-0.217v40.559h-16.832v-2.567
				C187.218,69.812,184.076,70.896,180.517,70.896z"/>
			<path id="XMLID_119_" style="fill:#FFFFFF;" d="M204.74,31.877v36.352h-12.832v-5.66c-2.953,4.219-6.75,6.328-11.391,6.328
				c-6.258,0-9.387-3.047-9.387-9.141V32.791c4.312-0.188,8.59-0.492,12.832-0.914v27.563c0,2.391,0.726,3.586,2.18,3.586
				c3.844,0,5.766-4.125,5.766-12.375V32.791C196.197,32.604,200.474,32.299,204.74,31.877 M187.963,27.459l-4.396,0.437
				c-4.148,0.413-8.391,0.715-12.61,0.898l-3.826,0.166v3.83v26.965c0,8.351,4.879,13.141,13.387,13.141
				c2.649,0,5.129-0.557,7.391-1.644v0.976h4h12.832h4v-4V31.877v-4.415l-4.394,0.435c-4.173,0.413-8.417,0.715-12.613,0.898
				l-3.771,0.165V27.459L187.963,27.459z"/>
		</g>
		<g id="XMLID_117_">
			<path id="XMLID_148_" style="fill:#EE3B33;" d="M233.053,71.037c-12.9,0-19.719-6.807-19.719-19.684
				c0-6.184,1.747-11.354,5.193-15.366c3.523-4.102,8.091-6.181,13.576-6.181c7.921,0,17.363,3.787,17.363,21.828v2h-5.516
				l5.688,1.664l-0.105,1.601C249.108,63.349,245.904,71.037,233.053,71.037z M230.804,53.635c0.273,6.587,1.961,9.922,5.026,9.922
				c2.394,0,4.609-0.712,4.609-5.875c0-0.674-0.022-1.448-0.067-2.323l-0.089-1.724H230.804z M234.365,45.662
				c-0.22-7.545-1.667-8.369-1.683-8.375h-0.016c-0.31,0-1.521,1.233-1.799,7.268l-0.049,1.107H234.365z"/>
			<path id="XMLID_123_" style="fill:#FFFFFF;" d="M232.104,31.807c10.242,0,15.363,6.609,15.363,19.828h-18.703
				c0,9.281,2.355,13.922,7.066,13.922c4.406,0,6.609-2.625,6.609-7.875c0-0.703-0.023-1.512-0.07-2.426l5.168,1.512
				c-0.539,8.18-5.367,12.27-14.484,12.27c-11.813,0-17.719-5.895-17.719-17.684c0-5.719,1.57-10.406,4.711-14.063
				S227.205,31.807,232.104,31.807 M228.729,47.662h7.664c0-8.25-1.242-12.375-3.727-12.375c-2.25,0-3.516,3.059-3.797,9.176
				L228.729,47.662 M232.104,27.807c-6.095,0-11.173,2.314-15.093,6.878c-3.767,4.385-5.677,9.993-5.677,16.669
				c0,13.983,7.713,21.684,21.719,21.684c11.234,0,17.795-5.685,18.476-16.006l0.211-3.201l-0.273-0.08v-2.115
				C251.467,30.902,239.335,27.807,232.104,27.807L232.104,27.807z M232.966,55.635h5.417c0.037,0.771,0.056,1.459,0.056,2.047
				c0,3.875-1.209,3.875-2.609,3.875C234.018,61.557,233.27,58.474,232.966,55.635L232.966,55.635z"/>
		</g>
		<g id="XMLID_120_">
			<path id="XMLID_144_" style="fill:#EE3B33;" d="M256.062,70.229V30.763l4.524,0.063c2.805,0,6.176-0.311,9.99-0.924l2.317-0.373
				v2.421c1.689-1.379,3.582-2.074,5.664-2.074c5.203,0,8.188,3.215,8.188,8.82c0,1.358-0.223,2.909-0.661,4.612
				c-0.126,0.575-0.352,1.536-0.66,2.816l-0.369,1.532h-12.161v22.57H256.062z"/>
			<path id="XMLID_124_" style="fill:#FFFFFF;" d="M278.558,31.877c4.125,0,6.188,2.273,6.188,6.82c0,1.195-0.199,2.566-0.598,4.113
				c-0.141,0.633-0.363,1.582-0.668,2.848h-8.789c0.305-1.383,0.574-2.402,0.809-3.059c0.328-0.961,0.492-1.828,0.492-2.602
				c0-1.5-0.539-2.25-1.617-2.25c-0.82,0-1.605,0.99-2.355,2.971s-1.125,4.072-1.125,6.275v21.234h-12.832V32.791l2.496,0.035
				c2.953,0,6.398-0.316,10.336-0.949v5.836C272.98,33.823,275.534,31.877,278.558,31.877 M274.894,27.183l-4.635,0.745
				c-3.698,0.594-6.952,0.897-9.674,0.899l-2.467-0.035l-4.056-0.057v4.057v35.438v4h4h12.832h4v-4v-18.57h8.586h3.151l0.738-3.064
				c0.302-1.254,0.525-2.205,0.67-2.852c0.476-1.865,0.707-3.516,0.707-5.045c0-6.775-3.808-10.82-10.188-10.82
				c-1.093,0-2.346,0.165-3.664,0.651V27.183L274.894,27.183z"/>
		</g>
		<g id="XMLID_122_">
			<path id="XMLID_136_" style="fill:#EE3B33;" d="M303.039,70.967c-8.521,0-13.215-4.406-13.215-12.406
				c0-5.629,3.21-9.749,9.549-12.271l-6.682-1.292l-0.209-1.4c-0.178-1.194-0.268-2.334-0.268-3.389
				c0-6.926,5.854-10.438,17.398-10.438c11.031,0,16.625,3.322,16.625,9.875v21.516c0,0.738,0.099,1.114,0.163,1.281
				c0.136-0.04,0.437-0.155,0.963-0.454l2.027-1.15l2.767,7.27l-1.853,0.719c-3.357,1.303-6.688,1.964-9.899,1.964
				c-4.368,0-6.938-1.285-8.446-2.87C309.624,69.944,306.635,70.967,303.039,70.967z M309.406,51.077
				c-1.872,1.193-2.75,3.089-2.75,5.937c0,3.796,0.638,4.826,0.804,5.03c1.293-0.055,1.946-1.723,1.946-4.96V51.077z M306.098,36.9
				c-3.929,0-4.258,1.689-4.258,3.273c0,0.593,0.149,1.712,0.864,3.676l0.417,1.147c5.73-2.056,6.391-3.907,6.391-4.647
				C309.512,37.835,308.586,36.9,306.098,36.9z"/>
			<path id="XMLID_127_" style="fill:#FFFFFF;" d="M309.614,31.771c9.75,0,14.625,2.625,14.625,7.875v21.516
				c0,2.203,0.715,3.305,2.145,3.305c0.445,0,1.102-0.246,1.969-0.738l1.23,3.234c-3.141,1.219-6.199,1.828-9.176,1.828
				c-4.406,0-7.125-1.371-8.156-4.113c-2.133,2.859-5.203,4.289-9.211,4.289c-7.477,0-11.215-3.469-11.215-10.406
				c0-5.273,3.422-8.977,10.266-11.109c6.281-1.969,9.422-4.336,9.422-7.102c0-3.633-1.805-5.449-5.414-5.449
				c-4.172,0-6.258,1.758-6.258,5.273c0,1.102,0.328,2.555,0.984,4.359l-6.363-1.23c-0.164-1.102-0.246-2.132-0.246-3.094
				C294.215,34.584,299.348,31.771,309.614,31.771 M307.399,64.045c2.672,0,4.008-2.32,4.008-6.961v-10.16
				c-0.797,0.914-1.723,1.676-2.777,2.285c-2.648,1.547-3.973,4.148-3.973,7.805C304.656,61.701,305.571,64.045,307.399,64.045
				 M309.614,27.771c-5.87,0-10.276,0.851-13.471,2.601c-3.822,2.094-5.927,5.588-5.927,9.836c0,1.153,0.098,2.392,0.29,3.683
				l0.417,2.8l2.65,0.512c-4.592,3.441-5.747,7.821-5.747,11.356c0,9.155,5.546,14.406,15.215,14.406
				c3.373,0,6.352-0.843,8.815-2.471c1.866,1.341,4.588,2.295,8.552,2.295c3.46,0,7.034-0.706,10.623-2.099l3.704-1.438
				l-1.413-3.714l-1.23-3.234l-1.658-4.358l-2.194,1.245V39.646c0-4.08-2.046-7.428-5.76-9.428
				C319.421,28.572,315.213,27.771,309.614,27.771L309.614,27.771z M304.31,42.368c-0.418-1.304-0.47-1.954-0.47-2.194
				c0-0.675,0.137-0.892,0.139-0.894c0.002-0.002,0.441-0.38,2.119-0.38c0.902,0,1.21,0.177,1.235,0.193
				c-0.006,0.003,0.167,0.3,0.178,1.165C307.393,40.442,306.751,41.277,304.31,42.368L304.31,42.368z"/>
		</g>
		<g id="XMLID_125_">
			<path id="XMLID_131_" style="fill:#EE3B33;" d="M334.872,70.229V18.24h2c3.466,0,7.721-0.234,12.646-0.694l2.187-0.205v52.887
				H334.872z"/>
			<path id="XMLID_128_" style="fill:#FFFFFF;" d="M349.704,19.537v48.691h-12.832V20.24
				C340.411,20.24,344.689,20.006,349.704,19.537 M353.704,15.145l-4.373,0.409c-4.864,0.455-9.056,0.686-12.459,0.686h-4v4v47.988
				v4h4h12.832h4v-4V19.537V15.145L353.704,15.145z"/>
		</g>
	</g>
</g>
</svg>
