<?xml version="1.0" encoding="utf-8"?>
<!-- Generator: Adobe Illustrator 19.0.0, SVG Export Plug-In . SVG Version: 6.00 Build 0)  -->
<svg version="1.1" id="Слой_1" xmlns="http://www.w3.org/2000/svg" xmlns:xlink="http://www.w3.org/1999/xlink" x="0px" y="0px"
	 viewBox="0 0 100 100" style="enable-background:new 0 0 100 100;" xml:space="preserve">
<style type="text/css">
	.st0{fill:#FFFFFF;}
	.st1{opacity:0.5;fill:#EE3B33;enable-background:new    ;}
	.st2{fill:#EE3B33;}
	.st3{opacity:0.4;fill:#EE3B33;enable-background:new    ;}
	.st4{opacity:0.3;fill:#EE3B33;enable-background:new    ;}
	.st5{fill:#00539F;}
	.st6{fill:#08E1D0;}
</style>
<circle id="XMLID_1_" class="st0" cx="50" cy="50" r="40"/>
<circle id="XMLID_48_" class="st1" cx="65.3" cy="50" r="24.7"/>
<circle id="XMLID_45_" class="st2" cx="65.3" cy="50" r="15.3"/>
<path id="XMLID_11_" class="st3" d="M56.2,10.5c-18,4.1-31.4,20.3-31.4,39.5c0,19.3,13.4,35.4,31.4,39.5C75.3,86.6,90,70,90,50
	S75.3,13.4,56.2,10.5z"/>
<path id="XMLID_3_" class="st4" d="M90,50c0-22.1-17.9-40-40-40S10,27.9,10,50s17.9,40,40,40S90,72.1,90,50z"/>
<path id="XMLID_6_" class="st5" d="M50,90c22.1,0,40-17.9,40-40c-5.5,5.5-14.5,5.5-20,0l0,0l0,0c-5.5,5.5-14.5,5.5-20,0l0,0
	c-5.5,5.5-14.5,5.5-20,0l0,0l0,0c-5.5,5.5-14.5,5.5-20,0l0,0C10,72.1,27.9,90,50,90z"/>
<path id="XMLID_8_" class="st6" d="M50,90c17.4,0,32.2-11.2,37.7-26.7c-2.8-0.5-5.5-1.8-7.7-3.9l0,0l0,0c-5.5,5.5-14.5,5.5-20,0l0,0
	c-5.5,5.5-14.5,5.5-20,0l0,0l0,0c-5.5,5.5-14.5,5.5-20,0l0,0c-2.2,2.2-4.9,3.5-7.7,3.9C17.8,78.8,32.6,90,50,90z"/>
<path id="XMLID_15_" class="st5" d="M50,90c13.7,0,25.9-7,33.1-17.6c-4.6,1-9.5-0.2-13.1-3.8l0,0l0,0c-5.5,5.5-14.5,5.5-20,0l0,0
	l0,0c-5.5,5.5-14.5,5.5-20,0l0,0l0,0c-3.6,3.6-8.5,4.8-13.1,3.8C24.1,83,36.3,90,50,90z"/>
<path id="XMLID_12_" class="st6" d="M75,81.2C70,83.1,64,82,60,78l0,0l0,0c-5.5,5.5-14.5,5.5-20,0l0,0l0,0c-4.1,4.1-10,5.1-15,3.2
	c6.9,5.5,15.6,8.8,25,8.8C59.5,90,68.2,86.7,75,81.2z"/>
<path id="XMLID_7_" class="st0" d="M50,10c22.1,0,40,17.9,40,40S72.1,90,50,90S10,72.1,10,50S27.9,10,50,10 M50,0
	C22.4,0,0,22.4,0,50s22.4,50,50,50s50-22.4,50-50S77.6,0,50,0L50,0z"/>
</svg>
